<svg width="20" height="24" viewBox="0 0 20 24" fill="none" xmlns="http://www.w3.org/2000/svg">
<path d="M12.4667 15.4286C16.9 15.4286 20 12.2433 20 7.66452C20 3.08571 16.9 0 12.4667 0H3.95833C3.61318 0 3.33333 0.287839 3.33333 0.642857V11.7124H0.625C0.279844 11.7124 0 12.0003 0 12.3553V14.7857C0 15.1407 0.279844 15.4286 0.625 15.4286H3.33333V17.1429H0.625C0.279844 17.1429 0 17.4307 0 17.7857V19.9286C0 20.2836 0.279844 20.5714 0.625 20.5714H3.33333V23.3571C3.33333 23.7122 3.61318 24 3.95833 24H7.00833C7.35349 24 7.63333 23.7122 7.63333 23.3571V20.5714H16.0417C16.3868 20.5714 16.6667 20.2836 16.6667 19.9286V17.7857C16.6667 17.4307 16.3868 17.1429 16.0417 17.1429H7.63333V15.4286H12.4667ZM7.63333 3.68293H11.7333C14.1667 3.68293 15.6333 5.24239 15.6333 7.66452C15.6333 10.1198 14.1667 11.7124 11.6667 11.7124H7.63333V3.68293Z" fill="#3E3E3E"/>
</svg>
